#!OML:ASF X:\für Bonn\!DataBase\2005_08_10_Bjorn_Final\c3d\bjorn.ASF
:FULLY-SPECIFIED
:DEGREES
196
root 3.45935 7.93423 -0.420859 304.383 -267.273 -402.612
lowerback 43.2768 -5.89762 7.52446
upperback 21.7015 0.134363 6.85447
thorax 4.01449 1.88342 3.65496
lowerneck -8.3293 -0.512265 4.67066
upperneck -1.98258 -0.939739 -8.00095
head 0.767094 -0.56932 -3.4563
rclavicle 6.36111e-015 2.38542e-014
rhumerus 0.108333 -17.3287 -74.0684
rradius 23.3897
rwrist 28.0655
rhand -49.7042 46.0008
rfingers 7.12502
rthumb -22.3052 17.2682
lclavicle 6.36111e-015 2.38542e-014
lhumerus 12.7991 -49.0234 52.6852
lradius 45.2616
lwrist -9.10539
lhand -22.6619 -13.8565
lfingers 7.12502
lthumb 3.76955 16.0899
rfemur 23.1266 -73.9763 -122.315
rtibia 153.269
rfoot -85.4967 77.8151
rtoes -5.73391
lfemur 0.642168 83.7461 71.7628
ltibia 155.713
lfoot -47.5499 -30.755
ltoes -36.5532
197
root 3.46231 7.99108 -0.420198 305.655 -267.549 -401.47
lowerback 43.0223 -5.75422 7.58718
upperback 21.5708 0.253641 6.95915
thorax 3.92532 1.9178 3.6854
lowerneck -8.5155 -0.295378 4.6384
upperneck -2.21723 -0.65012 -8.24606
head 0.745143 -0.423184 -3.52667
rclavicle -8.26944e-014 -5.88403e-014
rhumerus 0.128421 -17.728 -74.061
rradius 22.9899
rwrist 28.6039
rhand -49.4408 45.1763
rfingers 7.12502
rthumb -22.0523 16.4136
lclavicle -8.26944e-014 -5.88403e-014
lhumerus 12.2771 -49.6071 52.5947
lradius 45.6207
lwrist -8.50401
lhand -22.4935 -13.5501
lfingers 7.12502
lthumb 3.93222 16.3933
rfemur 20.7781 -74.44 -118.715
rtibia 152.889
rfoot -83.0422 77.7122
rtoes -5.48635
lfemur -10.2799 83.5833 60.6232
ltibia 155.37
lfoot -47.2452 -30.262
ltoes -36.9774
198
root 3.4652 8.05518 -0.419769 305.513 -267.732 -401.817
lowerback 42.699 -5.5803 7.54954
upperback 21.4363 0.355477 7.0381
thorax 3.84725 1.9339 3.7419
lowerneck -8.71864 -0.103194 4.62722
upperneck -2.46594 -0.395954 -8.5218
head 0.719857 -0.294707 -3.61307
rclavicle 3.49861e-014 9.22361e-014
rhumerus 0.174889 -18.1166 -74.0963
rradius 22.6421
rwrist 28.9773
rhand -49.1631 44.5227
rfingers 7.12502
rthumb -21.7856 15.7288
lclavicle 3.49861e-014 9.22361e-014
lhumerus 11.685 -50.1545 52.5379
lradius 45.9914
lwrist -7.96898
lhand -22.4053 -13.2685
lfingers 7.12502
lthumb 4.01741 16.6733
rfemur 17.3828 -75.0554 -114.135
rtibia 152.476
rfoot -79.9226 77.6545
rtoes -5.30439
lfemur -22.7471 83.1433 47.6555
ltibia 154.963
lfoot -46.8848 -29.4985
ltoes -37.5599
199
root 3.46875 8.1298 -0.418333 302.758 -267.762 -404.92
lowerback 42.1491 -5.33372 7.36569
upperback 21.3705 0.435074 7.1065
thorax 3.72644 1.92846 3.81156
lowerneck -8.90396 0.0643299 4.638
upperneck -2.66443 -0.174788 -8.80838
head 0.706107 -0.183485 -3.70905
rclavicle 1.27222e-014 -4.29375e-014
rhumerus 0.175171 -18.5258 -74.1571
rradius 22.3443
rwrist 29.2756
rhand -48.9123 43.8882
rfingers 7.12502
rthumb -21.5448 15.0665
lclavicle 1.27222e-014 -4.29375e-014
lhumerus 11.0209 -50.7064 52.5448
lradius 46.3303
lwrist -7.49424
lhand -22.3746 -12.999
lfingers 7.12502
lthumb 4.04705 16.9423
rfemur 13.0826 -75.7927 -108.805
rtibia 152.023
rfoot -76.6534 77.425
rtoes -5.67911
lfemur -38.4427 82.0595 31.1074
ltibia 154.48
lfoot -46.0596 -28.7487
ltoes -37.8641
200
root 3.47229 8.20981 -0.417364 300.823 -267.827 -407.174
lowerback 41.7447 -5.13277 7.24734
upperback 21.1902 0.517603 7.13566
thorax 3.61777 1.92559 3.85706
lowerneck -9.12101 0.219419 4.66983
upperneck -2.84642 0.0272977 -9.07959
head 0.702553 -0.0826245 -3.805
rclavicle 6.04305e-014 -3.65764e-014
rhumerus 0.17477 -18.8972 -74.2552
rradius 22.1027
rwrist 29.4567
rhand -48.6317 43.2854
rfingers 7.12502
rthumb -21.2753 14.4331
lclavicle 6.04305e-014 -3.65764e-014
lhumerus 10.3227 -51.1372 52.6504
lradius 46.5848
lwrist -7.11721
lhand -22.3243 -12.7946
lfingers 7.12502
lthumb 4.09564 17.1458
rfemur 7.48736 -76.3916 -102.047
rtibia 151.52
rfoot -72.8877 77.3192
rtoes -5.65145
lfemur -49.6258 80.4171 19.1049
ltibia 153.952
lfoot -45.3546 -27.8117
ltoes -38.4768
201
root 3.47649 8.29686 -0.416848 298.948 -267.922 -409.358
lowerback 41.3722 -4.95457 7.18933
upperback 20.9821 0.59806 7.14419
thorax 3.47459 1.92721 3.85073
lowerneck -9.30062 0.352604 4.74514
upperneck -2.98319 0.198249 -9.39039
head 0.705968 0.00146758 -3.92499
rclavicle 1.90833e-014 9.38264e-014
rhumerus 0.108738 -19.252 -74.3586
rradius 21.906
rwrist 29.5877
rhand -48.4438 42.6954
rfingers 7.12502
rthumb -21.0947 13.8229
lclavicle 1.90833e-014 9.38264e-014
lhumerus 9.4913 -51.5107 52.8782
lradius 46.8405
lwrist -6.85031
lhand -22.2943 -12.5997
lfingers 7.12502
lthumb 4.12463 17.3401
rfemur 0.809951 -76.7781 -94.0665
rtibia 150.958
rfoot -69.0788 77.0653
rtoes -5.73701
lfemur -57.1924 78.3647 10.76
ltibia 153.368
lfoot -44.5181 -27.0555
ltoes -38.8057
